<svg xmlns="http://www.w3.org/2000/svg" version="1.0" width="40.000000pt" height="40.000000pt" viewBox="0 0 40.000000 40.000000" preserveAspectRatio="xMidYMid meet">

<g transform="translate(0.000000,40.000000) scale(0.100000,-0.100000)" fill="#2f6a50" stroke="none">
<path d="M365 355 c-5 -2 -32 -6 -59 -10 -57 -8 -96 -41 -96 -81 0 -15 -5 -42 -12 -60 -12 -34 -18 -37 -135 -59 -18 -4 -35 -11 -38 -16 -4 -5 5 -5 20 1 15 6 50 10 79 10 30 0 73 7 96 15 53 19 97 19 133 0 15 -8 25 -10 22 -5 -16 26 -70 42 -122 38 -44 -4 -53 -2 -48 9 3 8 5 15 5 16 0 1 19 1 43 -1 28 -2 52 3 73 16 32 21 64 75 64 111 0 20 -4 23 -25 16z m-50 -61 c-22 -15 -53 -39 -69 -53 -17 -15 -27 -20 -24 -11 4 15 105 89 123 90 5 0 -8 -12 -30 -26z" fill="#2f6a50"/>
<path d="M92 328 c-21 -21 -15 -86 12 -113 13 -13 26 -30 29 -37 12 -29 6 32 -7 75 -8 26 -11 45 -6 42 4 -2 13 -26 21 -52 l13 -47 12 29 c14 35 2 78 -29 100 -26 18 -30 18 -45 3z" fill="#2f6a50"/>
<path d="M43 105 c-39 -17 -45 -29 -7 -15 43 17 82 11 162 -21 57 -23 87 -29 116 -26 51 7 66 24 17 19 -27 -3 -59 5 -109 27 -77 34 -128 38 -179 16z" fill="#2f6a50"/>
<path d="M115 61 c17 -4 40 -13 52 -19 12 -7 30 -12 40 -11 31 1 -60 39 -92 38 l-30 -1 30 -7z" fill="#2f6a50"/>
</g>
</svg>